<svg xmlns="http://www.w3.org/2000/svg" width="793" height="162" viewBox="0 0 792.086 161.776"><g clip-rule="evenodd" fill-rule="evenodd"><path d="M792.48 55.44c-1.358.986-2.216 2.432-3.313 3.655l-5.435 6.35c-.463.533-.534.997-.337 1.689 2.173 7.619 2.472 15.324.729 23.054-1.688 7.49-6.43 12.252-13.62 14.69-4.36 1.479-8.86 2.273-13.442 2.63-.872.067-1.283.326-1.428 1.293-.41 2.735-.46 2.61 2.334 2.823 6.393.484 12.736 1.252 18.813 3.52 5.37 2.006 8.764 5.705 9.896 11.32 1.233 6.117.914 12.168-1.585 17.945-2.773 6.413-8 10.022-14.457 12.084-4.7 1.499-9.538 2.19-14.423 2.612-4.45.384-8.913.495-13.382.507-9.973.026-19.772-1.35-29.485-3.478-1.71-.374-3.405-.82-5.114-1.204-.55-.123-.75-.287-.635-.938l3.995-22.937c.114-.66.336-.7.937-.5 7.757 2.572 15.766 3.814 23.892 4.3 4.852.289 9.717.282 14.576.03.793-.04 1.11-.34 1.06-1.175a27.17 27.17 0 0 1 .003-3.598c.065-.898-.29-1.02-1.078-1.012-5.187.053-10.368-.034-15.522-.7-2.392-.31-4.682-.996-6.853-2.006-2.63-1.224-4.188-3.46-2.8-6.966 1.478-3.73 2.66-7.575 4.018-11.354.28-.78.128-.973-.686-1.133-3.805-.75-7.46-1.942-10.854-3.876-5.467-3.112-9.163-7.614-10.68-13.747-1.697-6.86-2.112-13.788-.322-20.696 1.913-7.382 6.545-12.507 13.464-15.608 5.939-2.66 12.256-3.595 18.676-4.06 4.588-.333 9.178-.337 13.766-.1 2.26.117 4.515.387 6.766.644.698.08 1.24.015 1.83-.445l12.662-9.78c.554-.43.837-.485 1.368.032l12.933 12.463c1.22 1.169 2.488 2.289 3.734 3.432V55.44z" fill="#0A090A"/><path d="M270.6 132.719c-6.24 0-12.48-.036-18.72.034-1.092.013-1.38-.4-1.547-1.327l-5.81-32.106c-.104-.564.295-1.6-.864-1.63-1.22-.03-.783 1.062-.895 1.608l-6.5 32.363c-.163.824-.427 1.083-1.292 1.08l-36.477-.01c-.67 0-1.073-.074-1.23-.872l-15.9-79.51c-.245-1.216.1-1.248 1.089-1.245h29.637c.893-.002 1.166.2 1.295 1.156l6.39 46.374c.066.563.154.896.812.863.576-.03 1.02.027 1.188-.79l9.884-46.78c.13-.622.354-.824 1.005-.822l22.917.005c.634-.001.856.165.982.84l7 37.578 1.647 8.938c.116.657.26 1.075 1.092 1.047.772-.026.872-.385.974-1.023l7.509-46.466c.092-.638.264-.927 1.015-.924l30.237-.002c.938-.003.93.364.792 1.052l-5.14 25.559-10.638 53.367c-.253 1.287-.62 1.7-1.976 1.682l-18.597-.038z" fill="#EA272A"/><path d="M556.289 132.719h-1.267c-10.918 0-21.837-.014-32.755.024-.953.003-1.367-.27-1.714-1.173l-11.763-30.346c-.164-.424-.307-.873-.88-.793-.678.096-.455.662-.455 1.053l.016 29.875c.004 1.084-.263 1.392-1.375 1.387-10.038-.046-20.077-.05-30.115.003-1.106.005-1.284-.328-1.283-1.336l-.003-103.423c-.001-1.083.276-1.32 1.359-1.395l26.707-1.97c1.31-.1 2.623-.2 3.927-.352.626-.078.79.159.76.709-.017.319-.002.64-.002.959l.002 50.75c0 .357-.01.725.063 1.07.064.304.378.214.605.23.5.039.538-.414.669-.7l4.082-9.313 6.96-16.016c.278-.648.627-.855 1.326-.854l33.233-.004c1.099-.003 1.08.298.669 1.137l-12.1 24.738-5.96 12.278c-.25.5-.28.904-.032 1.44l19.03 41.149c.115.25.176.52.294.88z" fill="#E14196"/><path d="M400.68 93.405c-.02 5.809-.768 13.03-3.347 19.964-3.94 10.59-11.588 16.992-22.406 19.8-5.354 1.39-10.804 1.905-16.328 1.972-6.642.08-13.206-.405-19.613-2.242-5.81-1.665-11.037-4.39-15.133-8.936-4.18-4.64-6.6-10.183-8-16.21-.987-4.246-1.418-8.554-1.58-12.91-.26-7.016.24-13.94 2.097-20.727 1.516-5.54 4.018-10.6 8.019-14.776 3.486-3.647 7.767-6.078 12.516-7.702 5.092-1.74 10.354-2.533 15.716-2.796 6.314-.3 12.597-.145 18.818 1.079 7.169 1.4 13.78 3.982 18.98 9.37 4.658 4.825 7.22 10.735 8.699 17.173 1.164 5.07 1.574 10.223 1.572 16.942z" fill="#5A3795"/><path d="M174.103 92.555c-.03 6.692-.77 13.879-3.333 20.782-3.94 10.603-11.578 17.02-22.41 19.83-5.16 1.338-10.417 1.878-15.74 1.965-6.442.105-12.82-.307-19.08-1.936-6.014-1.565-11.46-4.188-15.796-8.757-4.198-4.425-6.7-9.77-8.193-15.62-1.14-4.458-1.65-8.997-1.826-13.6-.29-7.582.244-15.048 2.46-22.347 3.392-11.17 10.6-18.493 21.847-21.78 4.58-1.34 9.26-1.993 14.02-2.24 6.68-.35 13.314-.105 19.873 1.293 7.386 1.575 14.058 4.51 19.076 10.405 4.528 5.32 6.82 11.646 8.045 18.425.773 4.29 1.049 8.62 1.057 13.58z" fill="#4475B8"/><path d="M614.88 91.837l-.025-39.36c-.003-1.097.28-1.397 1.382-1.383l14.039.013c.728-.004 1.269.164 1.796.706l6.667 6.739c.59.623.939.553 1.547.134 4.499-3 9.334-5.554 14.529-7.245 4.376-1.425 8.86-2.293 13.476-2.583 5.51-.346 10.939-.12 16.159 1.816 5.385 1.998 9.483 5.39 11.256 11.088.487 1.566.768 3.18.769 4.825l.037 64.68c.003 1.266-.37 1.483-1.533 1.478a3148.87 3148.87 0 0 0-29.64.001c-1.167.005-1.534-.22-1.53-1.48l.062-54.12c.003-1.215-.288-1.557-1.512-1.518-3.03.098-6.08-.114-9.075.482-1.795.357-3.622.728-4.77 2.417-.754 1.109-.936 2.354-.936 3.649l-.001 48.96c0 1.583-.001 1.583-1.627 1.583-9.92.001-19.84-.016-29.76.024-1.03.004-1.342-.22-1.338-1.306l.026-39.6z" fill="#9B9B9C"/><path d="M39.599 84.433l-.025 20.515c-.006.922.299 1.212 1.144 1.353 11.96 1.985 23.73 1.272 35.267-2.53 1.142-.376 1.224.107 1.295.939l1.555 17.957.665 7.252c.092.794-.117 1.123-.853 1.403-4.838 1.844-9.856 2.895-14.99 3.362-9.4.856-18.774.716-28.08-1.006-6.152-1.138-11.917-3.247-16.824-7.26-5.12-4.186-8.368-9.655-10.572-15.803-1.966-5.482-2.724-11.2-3.246-16.96-.364-4.016-.488-8.048-.455-12.072.064-7.936.436-15.858 2.242-23.634 1.585-6.823 4.406-13.06 9.212-18.227 3.456-3.715 7.79-6.156 12.55-7.862 6.366-2.282 12.967-3.14 19.689-3.43 9.225-.398 18.29.65 27.25 2.755 1.08.254 2.119.685 3.194.97.854.227.966.706.804 1.5l-3.266 16.418-1.255 6.457c-.136.774-.238 1.12-1.23.909-6.563-1.395-13.196-2.266-19.92-2.1-3.222.075-6.445.224-9.574 1.205-2.846.892-4.19 2.87-4.454 5.714-.088.952-.114 1.913-.116 2.87l-.006 19.316z" fill="#30AB4A"/><path d="M413.662 91.859l-.02-39.358c-.003-1.033.179-1.43 1.342-1.412 4.679.076 9.359.045 14.039.017.693-.004 1.187.184 1.674.687l7.562 7.704c.557.579.926.534 1.469.057 6.458-5.686 14.066-8.954 22.414-10.693.844-.176 1.024.034 1.073.833l1.418 22.427.372 6.568c.072.842-.2.925-.948 1.018-5.403.673-10.69 1.768-15.497 4.52-1.615.925-2.37 2.078-2.355 4.11l.078 43.078c.002 1.028-.218 1.336-1.302 1.33a2999.62 2999.62 0 0 0-29.998.003c-1.165.007-1.342-.382-1.34-1.412l.02-39.48z" fill="#FBD904"/><path d="M598.712 91.915l.027 39.474c.004 1.12-.312 1.36-1.383 1.355l-30.115-.002c-.98.004-1.26-.22-1.257-1.236l-.001-75.108c-.001-1 .34-1.255 1.236-1.366l30.487-3.835c1.063-.137 1.015.386 1.014 1.124l-.008 39.594zm2.005-56.062c.04 1.684-.16 3.346-.53 4.983-.842 3.704-3.168 5.969-6.82 6.893-2.402.608-4.852.849-7.324 1.012-4.075.27-8.124.1-12.148-.525-3.625-.563-6.923-1.71-8.514-5.484-.516-1.224-.83-2.494-.973-3.806-.317-2.916-.276-5.808.52-8.664.967-3.47 3.236-5.572 6.669-6.495 3.883-1.044 7.848-1.184 11.84-1.134 3.235.04 6.433.275 9.59 1.05 4.307 1.059 6.605 3.888 7.356 8.123.235 1.333.379 2.684.336 4.046z" fill="#515151"/><path d="M753.12 76.989c-.095 1.7.167 3.777-.133 5.842-.326 2.24-1.582 3.684-3.784 4.226-3.874.953-7.83.766-11.77.79-.445.003-.52-.208-.514-.584.07-3.866-.203-7.74.158-11.598.2-2.146 1.33-3.683 3.52-4.327 2.629-.772 5.33-.802 8.028-.888 1.236-.04 2.476.025 3.712-.02.625-.022.81.17.796.8-.04 1.795-.014 3.593-.014 5.759zm-387.6 12.408l-.001 15.229c-.003 3.672-1.346 5.349-4.894 6.107-3.51.752-7.073.428-10.617.5-.53.01-.71-.222-.683-.718.02-.398.003-.8.003-1.2v-29.5c0-.32-.017-.64.006-.96.258-3.56 1.412-4.928 4.926-5.706 3.504-.776 7.07-.487 10.617-.547.923-.016.63.642.632 1.083l.01 15.71zm-226.56-.01l-.002 14.995c0 .438-.006.88-.063 1.314-.397 3.029-1.516 4.257-4.485 4.967-3.064.732-6.184.602-9.295.604-2.382.003-2.382.001-2.382-2.4l.002-29.032c0-.4-.012-.803.037-1.197.448-3.646 1.52-4.844 5.148-5.56 3.433-.677 6.92-.5 10.392-.51.9-.005.639.645.64 1.1l.008 15.715z" fill="#fff"/></g></svg>