<svg xmlns="http://www.w3.org/2000/svg" width="1900" height="350" viewBox="0 0 1899.506 349.313"><path d="M524.883 126.706c6.137 0 11.313 4.988 11.313 11.126 0 6.327-5.176 11.315-11.313 11.315h-55.82v33.566h44.694c6.138 0 11.126 4.986 11.126 11.125s-4.988 11.124-11.126 11.124h-44.694v44.88c0 6.14-5.176 11.125-11.317 11.125a11.13 11.13 0 0 1-11.122-11.125v-112.01c0-6.138 4.984-11.126 11.122-11.126h67.137zm46.028 7.099c1.728-4.222 5.946-7.1 10.359-7.1a11.51 11.51 0 0 1 10.547 7.099l44.69 111.82c.579 1.34.77 2.684.77 4.219 0 5.564-4.605 11.125-11.126 11.125-4.413 0-8.632-2.684-10.36-7.096l-8.44-20.908h-51.977l-8.44 20.908c-1.728 4.412-5.946 7.096-10.355 7.096-6.716 0-11.126-5.37-11.126-11.125 0-1.342.192-2.878.767-4.22l44.689-111.82zm-10.743-18.032c-.766-1.534-1.15-3.262-1.15-4.986 0-4.028 2.11-7.86 6.138-9.974l22.439-11.317c1.536-.765 3.072-1.15 4.796-1.15 4.223 0 8.249 2.303 10.168 6.138.767 1.536 1.15 3.264 1.15 4.988 0 4.22-2.303 8.246-6.14 10.168l-22.438 11.12c-1.536.769-3.26 1.15-4.988 1.15-4.027 0-8.058-2.302-9.977-6.138zm4.222 94.945h33.949l-17.07-42.773-16.88 42.773zm177.796 8.247c0 25.896-21.293 42.005-39.318 42.005h-39.132a11.13 11.13 0 0 1-11.122-11.125V137.832c0-6.138 4.984-11.126 11.122-11.126h30.883c.958 0 9.206.385 17.45 4.41 12.278 6.14 18.8 17.264 18.8 32.033 0 8.059-2.11 15.345-5.946 21.098 11.125 7.289 17.262 19.564 17.262 34.716zm-67.133-41.814h16.688c2.877 0 16.876-.574 16.876-14 0-12.854-8.822-14.003-12.463-14.003h-21.1v28.003zm44.69 41.814c0-7.098-4.4-19.563-18.222-19.563h-26.47v39.13h26.469c.19 0 5.37-.195 9.973-2.69 7.482-4.22 8.249-11.7 8.249-16.88zm122.747 24.935c1.156 1.919 1.727 3.837 1.727 5.944 0 3.646-1.915 7.292-5.367 9.399a10.61 10.61 0 0 1-5.754 1.726c-3.836 0-7.482-1.916-9.594-5.18l-24.74-39.508h-18.796v33.563c0 6.14-5.184 11.125-11.316 11.125-6.14 0-11.126-4.984-11.126-11.125v-112c0-6.138 4.987-11.126 11.126-11.126h30.496c1.148 0 11.316.19 21.863 5.37 14.965 7.48 23.209 21.292 23.209 39.32 0 1.149-.19 11.507-5.367 21.866-4.03 7.863-9.784 13.808-16.88 17.643l20.52 32.993zm-62.526-50.06h19.18c9.589 0 15.727-3.262 19.369-10.165 3.073-5.755 3.265-11.893 3.265-12.275 0-9.592-3.452-15.73-10.743-19.372-5.754-2.88-11.89-2.88-11.89-2.88h-19.18v44.69zm79.593 56.005V137.832c0-6.138 4.984-11.126 11.122-11.126s11.125 4.988 11.125 11.126v112.012a11.13 11.13 0 0 1-11.125 11.125c-6.138 0-11.122-4.985-11.122-11.125zm141.359-12.084c2.877 5.37.766 12.084-4.605 15.156-9.78 5.178-20.715 8.053-32.032 8.053-37.017 0-67.13-30.113-67.13-67.13s30.113-67.133 67.13-67.133c11.317 0 22.25 2.877 32.032 8.057 5.37 3.069 7.482 9.78 4.605 15.152-3.07 5.563-9.785 7.48-15.348 4.604-6.33-3.646-13.808-5.37-21.3-5.37-24.55 0-44.7 19.946-44.7 44.69s20.14 44.692 44.69 44.692c7.482 0 14.96-1.73 21.29-5.373 5.562-2.877 12.278-.958 15.348 4.602zm127.734 7.865c.57 1.34.767 2.877.767 4.219 0 5.756-4.413 11.125-11.126 11.125-4.413 0-8.63-2.684-10.355-7.096l-8.443-20.907h-51.978l-8.437 20.907a11.16 11.16 0 0 1-10.359 7.096c-6.52 0-11.125-5.56-11.125-11.125 0-1.535.19-2.878.77-4.22l44.687-111.82c1.728-4.222 5.946-7.1 10.55-7.1 4.4 0 8.632 2.877 10.359 7.099l44.689 111.82zm-38.173-34.907l-16.877-42.773-17.07 42.773h33.948zm82 50.25c-2.05 0-3.832-.765-5.368-2.3s-2.3-3.325-2.3-5.37V134.385c0-2.045.767-3.836 2.299-5.37s3.318-2.303 5.368-2.303H1207c.13 0 1.63.096 4.507.288s6.43.897 10.646 2.1c4.222 1.217 8.758 3.163 13.619 5.85s9.333 6.522 13.425 11.507 7.51 11.315 10.262 18.985 4.124 17.139 4.124 28.387-1.377 20.716-4.124 28.39-6.17 13.998-10.262 18.985-8.566 8.822-13.425 11.506-9.397 4.64-13.62 5.85c-4.215 1.219-7.768 1.92-10.646 2.113l-4.507.285h-34.522zm8.248-15.73H1207c.256 0 1.022-.063 2.302-.19s2.878-.416 4.797-.86 4.092-1.15 6.52-2.115c2.43-.958 4.92-2.203 7.479-3.74 6.265-4.216 11.126-10.096 14.578-17.642s5.18-16.495 5.18-26.854c0-10.74-1.797-19.882-5.372-27.425-3.582-7.544-8.7-13.425-15.344-17.646-2.302-1.534-4.67-2.715-7.1-3.548s-4.598-1.438-6.517-1.82-4.096-.7-6.524-.958h-26.274V245.24zm179.138 2.304c1.536 1.535 2.302 3.452 2.302 5.753 0 2.046-.766 3.839-2.302 5.37s-3.39 2.3-5.563 2.3h-65.214c-2.176 0-4.026-.765-5.56-2.3s-2.307-3.325-2.307-5.37V134.385c0-2.045.77-3.836 2.307-5.37a7.57 7.57 0 0 1 5.559-2.303h65.214a7.59 7.59 0 0 1 5.563 2.303c1.536 1.533 2.302 3.324 2.302 5.369 0 2.3-.766 4.22-2.302 5.755s-3.39 2.303-5.563 2.303h-57.352v43.727h45.46c2.173 0 3.99.739 5.465 2.207s2.205 3.29 2.205 5.465-.733 3.998-2.205 5.469-3.292 2.203-5.465 2.203h-45.46v43.729h57.352c2.172-.002 4.027.766 5.563 2.302zm43.273 2.3V137.832c0-6.138 4.988-11.126 11.125-11.126s11.126 4.988 11.126 11.126v112.012c0 6.14-4.988 11.125-11.126 11.125s-11.125-4.985-11.125-11.125zm48.717 11.125a11.13 11.13 0 0 1-11.122-11.125V137.832c0-6.138 4.984-11.126 11.122-11.126h32.6c.763 0 56.962-.19 56.962 67.133s-56.2 67.13-56.962 67.13h-32.6zm11.317-22.438h21.293c.57 0 9.206-.195 17.834-5.756 11.126-7.098 16.688-20.334 16.688-38.937 0-18.988-5.754-32.222-17.454-39.32-8.44-5.18-16.877-5.37-17.068-5.37h-21.293v89.384zm177.605 11.313c0 6.14-4.988 11.125-11.317 11.125h-61.375c-6.33 0-11.32-4.984-11.32-11.125V137.832c0-6.138 4.99-11.126 11.32-11.126h61.375c6.329 0 11.317 4.988 11.317 11.126 0 6.327-4.988 11.315-11.317 11.315h-50.253v33.566h39.128c6.138 0 11.125 4.986 11.125 11.125s-4.987 11.124-11.125 11.124h-39.128v33.568h50.253c6.329.001 11.317 4.984 11.317 11.314zm15.337 0V137.832c0-6.138 4.987-11.126 11.125-11.126s11.126 4.988 11.126 11.126v112.012c0 6.14-4.988 11.125-11.126 11.125s-11.125-4.985-11.125-11.125zm148.644-4.22c.579 1.34.77 2.877.77 4.219 0 5.756-4.4 11.125-11.126 11.125a11.15 11.15 0 0 1-10.355-7.096l-8.444-20.907h-51.977l-8.437 20.907c-1.728 4.412-5.946 7.096-10.36 7.096-6.52 0-11.126-5.56-11.126-11.125 0-1.535.19-2.878.767-4.22l44.69-111.82c1.73-4.222 5.949-7.1 10.55-7.1 4.4 0 8.632 2.877 10.355 7.099l44.69 111.82zm-38.166-34.907l-16.88-42.773-17.068 42.773h33.948zm132.915 5.563v1.917c0 11.126-4.414 21.674-12.088 29.346-8.436 8.44-19.944 13.044-32.603 13.044h-1.536c-16.302-.577-30.5-9.78-37.212-24.17-.767-1.534-.958-3.26-.958-4.795 0-4.217 2.303-8.247 6.52-10.165 1.536-.767 3.072-.96 4.604-.96 4.223 0 8.434 2.303 10.359 6.522 3.069 6.712 9.586 10.932 17.45 11.125h.962c6.712 0 12.27-2.112 16.302-6.14 3.835-3.836 5.945-8.63 5.945-13.8v-.768c-.578-8.822-17.263-16.688-24.55-18.8l-.77-.383c-19.754-7.096-29.73-19.563-29.73-36.827v-1.534c.383-9.78 4.8-18.603 13.045-24.74 6.903-5.37 16.3-8.632 26.277-8.632h1.725c8.057.19 16.305 3.454 23.018 8.439 2.877 2.303 4.413 5.563 4.413 8.823 0 2.3-.767 4.795-2.307 6.713-2.3 2.879-5.56 4.41-9.01 4.41-2.307 0-4.605-.576-6.712-2.107-2.88-2.304-6.716-3.646-10.168-3.837h-1.153c-9.397 0-16.688 4.793-16.876 11.699v.766c0 9.4 7.287 12.852 14.769 15.922 5.756 1.728 39.129 12.469 40.282 38.939z" fill="#fff"/><path d="M175.27 251.095l-.008-.173-.008-74.326.008 74.327a1.96 1.96 0 0 1 .008.172z" fill="none"/><path d="M349.638 272.27l-.092 2.968c-.146.09-.318.164-.45.278l-81.75 69.267c-1.686 1.439-3.684 2.572-4.893 4.528h-.54l-.082-3.783-.082-167.322.336-.677 28.072-22.45 25.697-20.672c4.52-3.57 9.314-5.312 14.298-5.312 3.439 0 6.97.832 10.553 2.475 5.885 2.704 8.992 7.3 8.982 14.096l-.046 126.605z" fill="#EB4736"/><path d="M175.912 251.925c-.056-.02-.652-50.552-.656-75.33C175.106 176.162.848 321.854.492 322.745l.057 11.89c1.639 7.543 6.63 12.579 13.809 14.506 1.202.323 31.397.09 45.297.09 2.857-3.653 116.257-97.307 116.257-97.307z" fill="#5B69B0"/><path d="M261.82 181.447l-.076-3.245-27.662 23.257-37.297 31.523-19.332 16.414c-.68.58-1.258 1.306-2.19 1.525l.008.173a1.79 1.79 0 0 1-.023.283l.02 97.936h86.645l-.084-3.787-.01-164.08z" fill="#7A5EA7"/><g fill="#E5B14E"><path d="M87.957 177.726c-.032.158-87.466 73.252-87.604 73.369l.429-146.25C2.4 96.788 9.156 91.109 18.686 90.944l23.502-.19 27.883.15c4.586.039 8.77 1.74 12.389 4.726 3.83 3.154 5.54 7.23 5.53 12.092-.015 3.6-.22 7.2-.22 10.802l.187 59.2z"/><path d="M.979 249.704l3.354-2.482-3.55 2.695-.43.299.429-.348.197-.164z"/></g><path d="M87.87 248.894L.8 323.047c-.04 0-.074 0-.106-.008h-.05l-.13-.024c-.008 0-.016-.007-.025-.007H.472v-72.57l87.317-73.057.082 71.512z" fill="#D4CC56"/><path d="M59.928 349.313h115.344l-.02-97.936-115.323 97.936z" fill="#554F9F"/><path d="M349.669 332.682c-.008 9.75-10.576 16.629-20.732 16.629H262.45c1.209-1.956 3.207-3.09 4.893-4.528l81.75-69.267c.133-.114.305-.188.45-.278l.123 57.444z" fill="#DE5CA1"/><path d="M177.453 249.396l19.332-16.414 37.297-31.523 27.662-23.257.338-.674-.146-2.962.057-29.462c.027-4.03-1.342-7.46-4.285-10.118-4.225-3.814-9.744-5.74-15.256-5.74-5.022 0-10.04 1.598-14.08 4.819l-25.466 20.479-27.648 22.05.008 74.326c.93-.22 1.508-.945 2.188-1.526z" fill="#66A2D7"/><path d="M175.256 176.596L87.87 248.894l.086-72.048 53.416-42.777c3.987-3.166 9.068-4.76 14.147-4.76 4.745 0 9.497 1.392 13.358 4.169 3.23 2.325 5.705 5.353 5.705 9.384.001 11.367.418 22.878.673 33.735z" fill="#67B765"/><path d="M70.779 0H17.225A17.23 17.23 0 0 0 0 17.226v39.27a17.23 17.23 0 0 0 17.225 17.226H70.78a17.23 17.23 0 0 0 17.225-17.226v-39.27A17.23 17.23 0 0 0 70.779 0z" fill="#E5B14E"/></svg>