<svg xmlns="http://www.w3.org/2000/svg" width="634" height="274" viewBox="-346.723 -1.499 633.52 273.259"><style><![CDATA[.C{stroke-miterlimit:10}.D{stroke-width:5}]]></style><path d="M-159.133 121.212c-1.85-2.582-16.592-19.822-18.238-21.337l-1.724-1.583-4.248 2.099c-2.34 1.149-4.33 2.007-4.44 1.9-.448-.468-.433-81.653.016-83.377 3.024-11.45 14.693-20.338 26.795-20.413 12.833-.1 24.585 7.246 27.683 17.29 1.257 4.066 1.308 5.88 1.308 47.988v43.742l-4.248-2c-2.34-1.048-4.647-1.905-5.13-1.905-.985 0-3.93 3.356-10.763 12.2-2.58 3.34-5.003 6.18-5.397 6.305s-1.124-.325-1.616-1.01zm2.89-52.87a33.08 33.08 0 0 0 .392-4.456l.016-2.09h-4.28c-4.097 0-4.247.05-3.866 1.45.219.799.385 2.814.394 4.463.008 2.814.123 3.04 1.782 3.232 3.97.456 5.143-.084 5.562-2.6zm-10.902-3.03c-.383-4.533-.283-5.698.542-6.614.907-1 .723-2.315-2.125-14.64-2.656-11.52-2.99-13.675-2.232-14.458.732-.767 1.2-.783 2.657-.117 3.165 1.45 9.803 1.625 14.399.399 6.855-1.833 7.045-1.858 7.472-.725.226.575-1.123 6.629-3.007 13.449-3.225 11.752-3.414 12.843-3.456 20.306-.025 5.53.174 7.912.69 7.912 1.083 0 1.517-1.6 1.517-5.48 0-5.113 1.88-10.22 6.402-17.39 2.232-3.532 4.738-7.746 5.57-9.345 5.397-10.36 4.248-23.302-2.63-29.632-9.03-8.33-23.57-9.536-33.265-2.765-6.846 4.78-10.51 11.643-10.552 19.789-.025 3.798.317 5.239 2.092 8.979 1.156 2.45 3.155 5.914 4.43 7.697 1.29 1.78 3.59 5.863 5.128 9.086 2.216 4.639 2.94 7.03 3.498 11.644.858 7.079.967 7.42 2.274 7.42.926-.003.993-.678.594-5.515zm9.8-7.546c.6-.917 7.182-24.554 6.938-24.877-.092-.11-1.934.149-4.106.574-2.167.432-5.963.633-8.445.449-2.48-.174-4.498-.1-4.498.149 0 .867 5.247 23.486 5.562 24.003.5.817 3.985.584 4.549-.298z" fill="#FCD900"/><path d="M-221.956 265.477l-1.606-8.76c-.483-2.3-.4-2.515 1.199-3 .94-.35 7.664-3.012 14.933-5.9 16.414-6.546 15.965-5.313 6.504-18.34l-6.663-9.176 6.765-7.28c13.383-14.34 14.757-15.973 14.556-17.456-.15-1.032-2.297-2.566-8.585-6.046l-9.004-4.882c-.583-.198 11.195-14.023 11.894-13.975.183.018 4.13 5.597 8.77 12.4s8.902 12.492 9.468 12.594c.575.1 5.597-1.717 11.177-4.048 5.563-2.334 10.26-4.098 10.437-3.915.174.168 1.258 6.53 2.424 14.126l2.496 15.09c.493 1.532 3.116 2.065 10.212 2.08h4.997v25.653c0 19.122-.192 25.868-.766 26.449-.6.602-11.343.768-44.44.768h-43.664l-1.104-6.282z" fill="#2EAB4A"/><path d="M-271.15 271.139l-35.022-.33 9.62-10.362c5.298-5.694 9.944-10.96 10.353-11.708.79-1.483.542-1.898-8.386-14.326l-4.372-6.08 13.65-5.348c7.512-2.947 14.092-5.813 14.64-6.346.866-.867.765-2.148-.9-11.943-1.024-6.03-1.725-11.11-1.542-11.278.167-.165 7.08.168 15.34.749 13.516.984 15.109 1 15.758.1.4-.55 2-5.612 3.548-11.24l3.014-10.462c.103-.133 6.663 3.53 14.577 8.129l21.286 12.06 6.897 3.747-10.28 11.027c-6.42 6.912-10.27 11.544-10.27 12.376-.008.75 2.892 5.379 6.44 10.292 4.415 6.133 6.195 9.098 5.647 9.38-.45.232-6.614 2.68-13.7 5.429-7.096 2.748-13.316 5.398-13.835 5.864-.79.749-.715 1.998.532 9.427l1.8 10c.339 1.433.237 1.45-4.725 1.302l-40.093-.47z" fill="#4374B8"/><path d="M-346.314 269.673c-.217-.797-.392-5.73-.392-10.976l-.018-9.493 11.127-5.548c11.394-5.697 13.375-6.947 13.375-8.396 0-.433-3.473-4.832-7.73-9.726-4.248-4.898-7.73-9.096-7.73-9.296-.007-.234 4.206-5.865 9.362-12.577 7.186-9.328 9.335-12.56 9.194-13.793-.167-1.415-1.458-2.166-10.828-6.28l-11.068-4.83c-.225-.1 1.058-7.196 2.856-15.773 3.906-18.605 4.065-17.807-3.514-17.5l-5.047.202v-17.255l3.065.383c1.682.217 6.879.582 11.526.825 9.829.49 8.912 1.083 11.202-7.17.79-2.848 1.632-5.53 1.874-5.963.284-.533 4.615 3.614 12.309 11.76 6.547 6.92 12.109 12.576 12.393 12.576s.517-4.514.517-10.063c0-9.328.083-10.026 1.124-9.577 3.739 1.6 4.073 1.4 11.103-6.58l6.978-7.954c.517-.64 8.33 8.72 13.375 16.032 4.882 7.079 5.299 7.496 7.346 7.496 1.907-.017 2.782.65 7.046 5.313 2.683 2.933 5.105 5.33 5.372 5.33.274 0 .575-3.53.674-7.855l.174-7.86 3.549-1.44c3.237-1.308 3.586-1.35 3.986-.36.233.59 1.209 6.445 2.143 13 1.473 10.36 2.604 16.57 3.087 16.855.068.05 5.372.418 11.776.8l11.644.733-3.755 12.2-3.94 12.408c-.115.083-5.48-2.863-11.94-6.58-6.473-3.713-12.293-6.745-12.944-6.745s-1.48.366-1.83.798-2.05 5.848-3.766 12.01l-3.098 11.21-4.23-.4c-11.535-1.034-27.034-1.883-27.983-1.516-1.45.565-1.366 2.23.824 14.642l1.758 10.7c-.05.05-6.53 2.582-14.392 5.68-7.86 3.08-14.64 6.013-15.074 6.528-.426.516-.632 1.466-.466 2.099s3.272 5.28 6.896 10.309l6.613 9.146-1.832 2.183c-1.017 1.2-5.896 6.564-10.86 11.926l-9.028 9.746h-16.205l-16.208.033-.39-1.454z" fill="#EB2227"/><path d="M-336.08 124.31l-6.613-.584-4.03-.384V105.98c0-16.25.083-17.358 1.158-17.358 1.34 0 22.062 21.563 22.062 22.962 0 .498-.783 3.664-1.732 7.029l-1.73 6.129-3.265-.117c-1.802-.056-4.432-.198-5.85-.314z" fill="#505050"/><path d="M-292.388 115.266c-1.432-.982-1.45-1.266-1.45-13.825 0-12.226.05-12.818 1.232-12.818 1.192 0 13.917 12.95 13.917 14.167 0 .699-11.235 13.574-11.818 13.524-.232-.016-1.083-.483-1.882-1.048z" fill="#9C9C9C"/><path d="M-144.86 199.049c-2.332-15.858-2.694-17.407-4.245-18-.56-.217-5.904 1.666-12.027 4.214-6.063 2.532-11.084 4.547-11.157 4.447l-8.713-12.758c-4.713-6.912-8.896-12.776-9.276-13.025-1.675-1.133-3.065-.133-8.73 6.295-3.298 3.732-6.153 6.647-6.346 6.446-.183-.183 1.35-5.863 3.432-12.627 3.43-11.176 3.674-12.358 2.748-13.275-.767-.773-3.216-1.164-9.962-1.566l-11.878-.583-2.93-.032-2.13-14.342c-2.624-17.74-2.508-17.223-4.18-17.99-1.076-.483-2.367-.2-5.782 1.332-2.422 1.099-4.515 1.982-4.664 1.982-.14 0-.267-6.96-.267-15.474 0-14.74.067-15.483 1.216-15.483.765 0 10.442 9.695 25.9 25.959l25.227 26.169c.29.117.53-7.045.53-15.924V108.67l4.1-2.282c2.238-1.258 4.347-2.282 4.66-2.266.327 0 4.939 5.365 10.263 11.887 5.32 6.536 10.062 12.042 10.528 12.233 1.642.682 3.307-1 9.877-9.96 3.639-4.965 6.988-9.03 7.444-9.03.449 0 2.717.942 5.03 2.074l4.197 2.073v100.325h-10.728l-2.15-14.675z" fill="#593594"/><path d="M-346.723 212.374c0-26.684.133-30.932.917-30.3.499.419 5.088 2.565 10.194 4.765 5.113 2.216 9.345 4.28 9.427 4.63.076.367-3.723 5.663-8.427 11.795-4.698 6.145-8.753 11.709-9.012 12.392-.516 1.416-.333 1.667 8.745 12.109 3.165 3.648 5.638 6.747 5.497 6.862-.134.133-4.097 2.147-8.795 4.497l-8.546 4.282v-31.032zm.208-48.303l.109-13.227 2.748-.19c1.506-.11 2.748-.042 2.748.13 0 .56-5.213 25.18-5.48 25.86-.134.35-.19-5.295-.126-12.574z" fill="#E13F96"/><g stroke="#686868" class="C D"><path d="M-131.98 265C-7.5 265-45.478-59.813 34.069 19.733" fill="none"/><path d="M160.289 159.08l13.609-13.61 86.955 86.955-13.61 13.609z" fill="#C4C4C4"/></g><g stroke="#054866" fill="#0881C4"><path d="M25.012 23.813L38.62 10.205l86.955 86.955-13.608 13.608z" class="C D"/><path d="M107.917 113.922L128.729 93.1l37.978 37.978-20.812 20.813zm33.666 42.474l29.617-29.617 10.818 10.817-29.617 29.618z" class="C D"/></g><path d="M254.56 239.75l5.929-5.93 8.045 13.977 8.046 13.975-27.95-16.09z" fill="#C4C4C4" stroke="#686868" class="C D"/></svg>