<svg xmlns="http://www.w3.org/2000/svg" width="100" height="100"><path d="M100 93c0 3.313-2.687 6-6 6H6c-3.313 0-6-2.687-6-6V20h100v73z" fill="#F39C12"/><path d="M4 0h92v20H4z" fill="#E57D22"/><path d="M96 20h-8V8l8-8zM4 20h8V8L4 0z" fill="#F39C12"/><path d="M12 8v12H0zm76 0v12h12z" fill="#F1C40F"/><circle cx="26" cy="40" r="5" opacity=".3"/><circle cx="74" cy="40" r="5" opacity=".3"/><path d="M74 40c0 13.254-10.745 24-24 24S26 53.255 26 40" clip-rule="evenodd" stroke="#fff" stroke-width="6" stroke-linecap="round" stroke-miterlimit="10" fill="none"/></svg>