<svg xmlns="http://www.w3.org/2000/svg" width="267" height="267" viewBox="0 0 266.893 266.894"><path d="M266.893 254.259a12.64 12.64 0 0 1-12.635 12.635H12.635A12.64 12.64 0 0 1 0 254.259V12.635A12.64 12.64 0 0 1 12.635 0h241.624a12.64 12.64 0 0 1 12.635 12.635v241.624z" fill="#5FA9DD"/><path d="M233.447 71.413c-7.37 3.278-15.277 5.47-23.578 6.468 8.486-5.078 14.99-13.132 18.057-22.705a82.5 82.5 0 0 1-26.069 9.961c-7.477-7.98-18.148-12.965-29.943-12.965-22.664 0-41.04 18.377-41.04 41.038a41.73 41.73 0 0 0 1.063 9.342c-34.087-1.694-64.333-18.04-84.57-42.872a41.03 41.03 0 0 0-5.559 20.637c0 14.228 7.25 26.809 18.255 34.144-6.727-.204-13.046-2.058-18.565-5.116l-.005.52c0 19.872 14.138 36.45 32.917 40.24a41.88 41.88 0 0 1-10.831 1.41c-2.64 0-5.197-.226-7.717-.736 5.229 16.335 20.388 28.18 38.339 28.49-14.036 11.029-31.735 17.56-50.954 17.56a84.66 84.66 0 0 1-9.796-.569c18.157 11.685 39.72 18.462 62.9 18.462 75.469 0 116.735-62.532 116.735-116.764 0-1.767-.027-3.525-.1-5.285 8-5.796 14.948-13.024 20.46-21.262z" fill="#fff"/></svg>